# This file uses centimeters as units for non-parametric coordinates.

v -3.957431 0.000000 0.654588
v 4.078269 0.000000 0.654588
v -3.957431 5.121089 0.654588
v 4.078269 5.121089 0.654588
v -3.957431 5.121089 -0.533751
v 4.078269 5.121089 -0.533751
v -3.957431 0.000000 -0.533751
v 4.078269 0.000000 -0.533751
vt 0.005806 -0.000446
vt 0.996527 -0.000446
vt 0.996527 0.948102
vt 0.005806 0.948102
vt 0.371435 0.838844
vt 0.411334 0.838844
vt 0.411334 0.911481
vt 0.371435 0.911481
vt 0.998148 0.949674
vt 0.002937 0.950677
vt 0.001973 0.003021
vt 0.997184 0.002018
vt 0.432270 0.846150
vt 0.482728 0.846150
vt 0.482728 0.911741
vt 0.432270 0.911741
vt 0.032293 0.867794
vt 0.032320 0.824825
vt 0.338399 0.825022
vt 0.338372 0.867991
vt 0.033199 0.941552
vt 0.033539 0.900354
vt 0.340404 0.902885
vt 0.340064 0.944084
vn 0.000000 0.000000 1.000000
vn 0.000000 0.000000 1.000000
vn 0.000000 0.000000 1.000000
vn 0.000000 0.000000 1.000000
vn 0.000000 1.000000 0.000000
vn 0.000000 1.000000 0.000000
vn 0.000000 1.000000 0.000000
vn 0.000000 1.000000 0.000000
vn 0.000000 0.000000 -1.000000
vn 0.000000 0.000000 -1.000000
vn 0.000000 0.000000 -1.000000
vn 0.000000 0.000000 -1.000000
vn 0.000000 -1.000000 0.000000
vn 0.000000 -1.000000 0.000000
vn 0.000000 -1.000000 0.000000
vn 0.000000 -1.000000 0.000000
vn 1.000000 0.000000 0.000000
vn 1.000000 0.000000 0.000000
vn 1.000000 0.000000 0.000000
vn 1.000000 0.000000 0.000000
vn -1.000000 0.000000 0.000000
vn -1.000000 0.000000 0.000000
vn -1.000000 0.000000 0.000000
vn -1.000000 0.000000 0.000000
s off
f 1/1/1 2/2/2 4/3/3 3/4/4
f 3/5/5 4/6/6 6/7/7 5/8/8
f 5/9/9 6/10/10 8/11/11 7/12/12
f 7/13/13 8/14/14 2/15/15 1/16/16
f 2/17/17 8/18/18 6/19/19 4/20/20
f 7/21/21 1/22/22 3/23/23 5/24/24
